<svg width="57" height="51" viewBox="0 0 57 51" fill="none" xmlns="http://www.w3.org/2000/svg">
<ellipse cx="28.5" cy="25.5" rx="28.5" ry="25.5" fill="#F1CAD6"/>
<path d="M26.2588 25.3258C26.3772 25.888 25.8149 26.3153 25.3774 26.0154L23.8856 24.993L22.0228 28.2625C21.5363 29.1162 22.0986 30.2299 23.0161 30.2299H24.9199C25.1626 30.2299 25.3594 30.4457 25.3594 30.7118V32.3184C25.3594 32.5846 25.1626 32.8004 24.9199 32.8004H23.0198C20.261 32.8004 18.5776 29.4648 20.0386 26.901L21.8997 23.632L20.4083 22.6099C19.9659 22.3068 20.08 21.5672 20.587 21.4388L24.624 20.4166C24.9394 20.3367 25.2539 20.5524 25.3267 20.8982L26.2588 25.3258ZM29.8682 17.979L31.3803 20.633L29.8883 21.6555C29.447 21.9578 29.5587 22.6979 30.067 22.8266L34.104 23.8488C34.4216 23.9291 34.7344 23.7107 34.8067 23.3672L35.7387 18.9395C35.8558 18.3835 35.2996 17.9467 34.8573 18.25L33.3673 19.2711L31.8562 16.617C30.4822 14.2057 27.2709 14.2002 25.8937 16.617L25.2359 17.7723C25.1074 17.9981 25.17 18.2953 25.3758 18.4364L26.618 19.2877C26.8238 19.4288 27.0949 19.3601 27.2235 19.1344L27.8813 17.9799C28.3468 17.1629 29.4184 17.1896 29.8682 17.979ZM37.7112 26.901L36.7036 25.1311C36.575 24.9053 36.3038 24.8365 36.0979 24.9776L34.8579 25.8275C34.6521 25.9686 34.5895 26.2659 34.7181 26.4917L35.7275 28.2634C36.213 29.1154 35.6522 30.2299 34.7338 30.2299H31.2187V28.3027C31.2187 27.7319 30.5873 27.4439 30.2185 27.8484L27.2888 31.0608C27.06 31.3118 27.06 31.7187 27.2888 31.9696L30.2185 35.1824C30.5848 35.5842 31.2187 35.3027 31.2187 34.7279V32.8004H34.73C37.4866 32.8004 39.1734 29.4668 37.7112 26.901Z" fill="#FF0063"/>
</svg>
