<svg width="57" height="57" viewBox="0 0 57 57" fill="none" xmlns="http://www.w3.org/2000/svg">
<circle cx="28.5" cy="28.5" r="28.5" fill="#F5CCA2"/>
<path d="M32.1669 19.7661C31.4008 20.6325 30.7091 21.5433 30.0963 22.4582C29.0923 20.7726 27.8474 19.0627 26.4375 17.4677C22.8186 21.5604 20.25 26.8929 20.25 30.1089C20.25 35.8212 23.9437 40.4516 28.5 40.4516C33.0563 40.4516 36.75 35.8212 36.75 30.1089C36.75 27.7176 34.8356 22.7855 32.1669 19.7661ZM31.4498 35.058C30.652 35.7386 29.6683 36.1421 28.6054 36.1421C25.9481 36.1421 23.7857 33.9991 23.7857 30.5196C23.7857 28.7864 24.6811 27.2592 26.4666 24.6502C26.7219 25.0084 30.1066 30.2768 30.1066 30.2768L32.2659 27.2745C32.4184 27.582 32.5573 27.8828 32.681 28.171C33.6883 30.5138 33.2633 33.5116 31.4498 35.058Z" fill="#F78715"/>
</svg>
