<svg width="27" height="27" viewBox="0 0 27 27" fill="none" xmlns="http://www.w3.org/2000/svg">
<path d="M26.5894 23.1813L21.34 18.0835C21.103 17.8534 20.7818 17.7256 20.4449 17.7256H19.5866C21.0398 15.9207 21.9033 13.6504 21.9033 11.1808C21.9033 5.3058 17.0014 0.545471 10.9517 0.545471C4.90192 0.545471 0 5.3058 0 11.1808C0 17.0558 4.90192 21.8161 10.9517 21.8161C13.4948 21.8161 15.8325 20.9776 17.6912 19.5663V20.3998C17.6912 20.727 17.8228 21.0389 18.0597 21.269L23.3092 26.3668C23.8041 26.8474 24.6044 26.8474 25.0941 26.3668L26.5841 24.9198C27.0791 24.4392 27.0791 23.662 26.5894 23.1813ZM10.9517 17.7256C7.22915 17.7256 4.21218 14.8009 4.21218 11.1808C4.21218 7.56581 7.22389 4.63598 10.9517 4.63598C14.6742 4.63598 17.6912 7.5607 17.6912 11.1808C17.6912 14.7958 14.6794 17.7256 10.9517 17.7256Z" fill="#878686"/>
</svg>
